<svg xmlns="http://www.w3.org/2000/svg" viewBox="0 0 240 240" role="img" aria-labelledby="title"><title id="title">Знак «Органический камень»</title><g transform="translate(0 0) scale(1.000000)">
<path d="M121 19c24 1 66 32 79 66 14 37-5 92-41 119-27 21-74 20-101-7-25-25-24-68-9-105 16-40 47-74 72-73Z" fill="none" stroke="#771441" stroke-width="7.5" stroke-linecap="round" stroke-linejoin="round"/>
<path d="m121 35 45 48-17 80-30 36-49-38-4-66Z" fill="none" stroke="#771441" stroke-width="5" stroke-linecap="round" stroke-linejoin="round"/>
<path d="M121 35v89L70 95M121 124l-2 75M121 124l45-41" fill="none" stroke="#771441" stroke-width="4" stroke-linecap="round" stroke-linejoin="round"/>
<circle cx="121" cy="124" r="7" fill="#771441"/>
</g></svg>
